<svg width="24" height="24" viewBox="0 0 24 24" fill="none" xmlns="http://www.w3.org/2000/svg">
<path d="M2.48278 2.89661C1.11145 2.89661 0 4.00806 0 5.37935C0 6.75064 1.11145 7.86213 2.48278 7.86213C3.85408 7.86213 4.96553 6.75068 4.96553 5.37935C4.96553 4.00802 3.85408 2.89661 2.48278 2.89661ZM2.48278 9.51727C1.11145 9.51727 0 10.6288 0 12.0001C0 13.3714 1.11145 14.4828 2.48278 14.4828C3.85408 14.4828 4.96553 13.3714 4.96553 12.0001C4.96553 10.6288 3.85408 9.51727 2.48278 9.51727ZM2.48278 16.138C1.11145 16.138 0 17.2494 0 18.6207C0 19.9921 1.11145 21.1035 2.48278 21.1035C3.85408 21.1035 4.96553 19.9921 4.96553 18.6207C4.96553 17.2494 3.85408 16.138 2.48278 16.138ZM9.10345 7.03453H22.3448C23.2593 7.03453 24 6.29382 24 5.37935C24 4.46488 23.2593 3.72417 22.3448 3.72417H9.10345C8.18898 3.72417 7.44827 4.46488 7.44827 5.37935C7.44827 6.29382 8.18898 7.03453 9.10345 7.03453ZM22.3448 10.3449H9.10345C8.18898 10.3449 7.44827 11.0856 7.44827 12.0001C7.44827 12.9145 8.18898 13.6552 9.10345 13.6552H22.3448C23.2593 13.6552 24 12.9145 24 12.0001C24 11.0856 23.2593 10.3449 22.3448 10.3449ZM22.3448 16.9656H9.10345C8.18898 16.9656 7.44827 17.7062 7.44827 18.6207C7.44827 19.5352 8.18898 20.2759 9.10345 20.2759H22.3448C23.2593 20.2759 24 19.5352 24 18.6207C24 17.7062 23.2593 16.9656 22.3448 16.9656Z" fill="#808080"/>
</svg>
