<svg width="24" height="24" viewBox="0 0 24 24" fill="none" xmlns="http://www.w3.org/2000/svg">
<path d="M18.2289 14.6742C17.6929 14.5442 17.1529 14.8791 17.0259 15.4161C16.8979 15.9531 17.2309 16.4921 17.7679 16.6191C20.8738 17.3561 21.9998 18.4461 21.9998 19.0001C21.9998 20.195 18.0119 22 12 22C5.98911 22 2.00022 20.195 2.00022 19.0001C2.00022 18.4461 3.12721 17.3561 6.23112 16.6191C6.7691 16.4921 7.1011 15.9531 6.97309 15.4161C6.84611 14.8791 6.30612 14.5441 5.77012 14.6742C2.0492 15.5561 0.000244141 17.0921 0.000244141 19.0001C0.000244141 22.282 6.03814 24 12 24C17.9629 24 23.9998 22.282 23.9998 19.0001C23.9998 17.0921 21.9508 15.5561 18.2289 14.6742Z" fill="#808080"/>
<path d="M12.0007 8.00054C12.5527 8.00054 13.0007 7.55256 13.0007 7.00057C13.0007 6.44859 12.5527 6.00061 12.0007 6.00061C11.4487 6.00061 11.0007 6.44859 11.0007 7.00057C11.0007 7.55256 11.4487 8.00054 12.0007 8.00054Z" fill="#808080"/>
<path d="M10.6984 18.6333L11.1054 19.4472C11.2754 19.7862 11.6214 20.0002 12.0004 20.0002C12.3794 20.0002 12.7254 19.7862 12.8953 19.4472L13.7573 17.7233C14.8063 15.6243 16.1003 13.5914 17.3512 11.6254L17.9212 10.7284C18.6272 9.6124 19.0002 8.32341 19.0002 7.00044C19.0002 5.00847 18.1473 3.1045 16.6603 1.77655C15.1743 0.449595 13.1754 -0.186346 11.1824 0.0476496C8.07046 0.401643 5.50054 2.90758 5.06953 6.00553C4.81454 7.8415 5.27353 9.66448 6.36049 11.1404C8.05649 13.4384 9.38045 15.9953 10.6984 18.6333ZM12.0004 4.00054C13.6543 4.00054 15.0003 5.34653 15.0003 7.00048C15.0003 8.65444 13.6543 10.0004 12.0004 10.0004C10.3464 10.0004 9.00044 8.65444 9.00044 7.00048C9.00044 5.34653 10.3464 4.00054 12.0004 4.00054Z" fill="#808080"/>
</svg>
