<svg width="24" height="24" viewBox="0 0 24 24" fill="none" xmlns="http://www.w3.org/2000/svg">
<g clip-path="url(#clip0)">
<path d="M14.9998 13.0011C14.4469 13.0011 13.9999 13.4492 13.9999 14.0011V18.0012C13.9999 18.5521 13.5519 19.0011 12.9998 19.0011H9.99983V4.00124C9.99983 3.14725 9.45583 2.38425 8.63791 2.10026L8.34183 2.0012H12.9998C13.5519 2.0012 13.9999 2.45017 13.9999 3.00131V6.00128C13.9999 6.55316 14.4469 7.00121 14.9998 7.00121C15.5528 7.00121 15.9998 6.55316 15.9998 6.00128V3.00131C15.9998 1.34734 14.6538 0.00134277 12.9998 0.00134277H2.24998C2.21189 0.00134277 2.18003 0.0183714 2.14304 0.0233152C2.09489 0.0192869 2.04893 0.00134277 2.00004 0.00134277C0.897024 0.00134277 0 0.898184 0 2.0012V20.001C0 20.855 0.544001 21.618 1.36192 21.902L7.37999 23.9081C7.58397 23.9711 7.78684 24.0011 7.99998 24.0011C9.10299 24.0011 9.99983 23.1041 9.99983 22.0011V21.0011H12.9998C14.6538 21.0011 15.9998 19.6551 15.9998 18.0012V14.0011C15.9998 13.4492 15.5528 13.0011 14.9998 13.0011V13.0011Z" fill="#808080"/>
<path d="M23.7067 9.29317L19.7067 5.29327C19.4208 5.00726 18.9907 4.9212 18.6168 5.07611C18.2438 5.2312 17.9998 5.59612 17.9998 6.00023V9.0002H13.9999C13.4478 9.0002 12.9998 9.44807 12.9998 10.0001C12.9998 10.5522 13.4478 11.0001 13.9999 11.0001H17.9998V14C17.9998 14.4041 18.2438 14.7691 18.6168 14.9241C18.9907 15.0791 19.4208 14.993 19.7067 14.7072L23.7067 10.7071C24.0977 10.3162 24.0977 9.68409 23.7067 9.29317V9.29317Z" fill="#808080"/>
</g>
<defs>
<clipPath id="clip0">
<rect width="24" height="24" fill="white"/>
</clipPath>
</defs>
</svg>
