<svg width="24" height="24" viewBox="0 0 24 24" fill="none" xmlns="http://www.w3.org/2000/svg">
<path d="M0.374991 8H11.625C11.832 8 12 7.55195 12 7C12 6.44796 11.832 6 11.625 6H0.374991C0.167982 6 0 6.44805 0 7C0 7.55195 0.168014 8 0.374991 8Z" fill="#808080"/>
<path d="M23.25 11H0.749981C0.335964 11 0 11.448 0 12C0 12.552 0.336026 13 0.749981 13H23.25C23.664 13 23.9999 12.552 23.9999 12C23.9999 11.448 23.664 11 23.25 11Z" fill="#808080"/>
<path d="M23.4546 16H12.5454C12.2443 16 12 16.448 12 17C12 17.552 12.2444 18 12.5454 18H23.4546C23.7557 18 24 17.552 24 17C24 16.448 23.7557 16 23.4546 16Z" fill="#808080"/>
</svg>
